<?xml version="1.0" standalone="no"?>
<!DOCTYPE svg PUBLIC "-//W3C//DTD SVG 20010904//EN"
 "http://www.w3.org/TR/2001/REC-SVG-20010904/DTD/svg10.dtd">
<svg version="1.0" xmlns="http://www.w3.org/2000/svg"
 width="183.000000pt" height="183.000000pt" viewBox="0 0 183.000000 183.000000"
 preserveAspectRatio="xMidYMid meet">
<metadata>
Created by potrace 1.14, written by Peter Selinger 2001-2017
</metadata>
<g transform="translate(0.000000,183.000000) scale(0.100000,-0.100000)"
fill="#000000" stroke="none">
<path d="M0 915 l0 -915 915 0 915 0 0 915 0 915 -915 0 -915 0 0 -915z m1297
844 c-104 -68 -208 -234 -328 -523 -55 -130 -73 -166 -82 -155 -2 2 -18 42
-36 88 -41 109 -109 211 -176 264 -59 46 -66 57 -35 57 37 0 84 -26 149 -81
105 -89 94 -87 132 -27 148 234 310 394 413 407 5 0 -11 -13 -37 -30z m-418
-701 c11 -10 12 -10 7 -1 -5 9 -2 11 8 7 9 -3 13 -11 9 -17 -4 -7 0 -8 11 -4
22 9 59 -10 50 -25 -4 -7 -3 -8 4 -4 17 10 55 -13 48 -30 -3 -8 -1 -14 4 -14
6 0 10 5 10 11 0 11 50 -21 85 -54 20 -19 20 -19 -1 -9 -11 6 -26 18 -34 26
-14 18 -35 22 -24 4 4 -6 3 -8 -4 -4 -5 3 -109 7 -230 8 -121 0 -225 4 -231 8
-14 8 143 89 179 92 16 2 24 -2 22 -10 -1 -8 2 -11 8 -7 6 3 8 10 5 15 -5 8
15 17 46 19 8 0 21 -5 28 -11z m-329 -118 c-13 -11 -27 -20 -33 -20 -12 0 35
39 47 40 5 0 -1 -9 -14 -20z m525 -20 c3 -5 -1 -10 -9 -10 -9 0 -16 5 -16 10
0 6 4 10 9 10 6 0 13 -4 16 -10z m-600 -20 c-3 -5 -12 -10 -18 -10 -7 0 -6 4
3 10 19 12 23 12 15 0z m1075 -45 c17 -9 30 -19 30 -24 0 -5 11 -12 25 -15 22
-6 24 -9 14 -27 -8 -17 -7 -24 8 -36 17 -14 17 -14 -2 -6 -11 4 -98 9 -193 11
-151 3 -172 5 -162 17 7 8 21 15 32 15 10 0 17 4 13 9 -5 10 32 27 49 23 4 -2
14 5 21 14 7 11 20 15 33 12 12 -3 21 -3 20 1 -2 17 5 21 42 21 23 0 54 -7 70
-15z m111 -81 c12 -14 11 -16 -5 -13 -11 2 -21 10 -24 17 -5 17 13 15 29 -4z
m32 -39 c-7 -21 -12 -19 -10 4 0 11 5 18 9 15 4 -3 5 -11 1 -19z m-443 5 c0
-5 -2 -10 -4 -10 -3 0 -8 5 -11 10 -3 6 -1 10 4 10 6 0 11 -4 11 -10z"/>
<path d="M676 1005 c-14 -11 -16 -15 -5 -15 8 0 23 7 33 15 14 11 16 15 5 15
-8 0 -23 -7 -33 -15z"/>
<path d="M965 989 c-4 -6 -4 -13 -1 -16 3 -4 6 -1 6 5 0 6 8 13 18 15 15 4 15
5 0 6 -9 0 -20 -4 -23 -10z"/>
<path d="M1410 810 c0 -5 7 -7 15 -4 8 4 15 8 15 10 0 2 -7 4 -15 4 -8 0 -15
-4 -15 -10z"/>
<path d="M1520 799 c0 -5 9 -9 20 -9 11 0 20 2 20 4 0 2 -9 6 -20 9 -11 3 -20
1 -20 -4z"/>
</g>
</svg>
